# xmcd
#
# Track frame offsets:
# 150
# 12485
# 29647
# 44660
# 67523
# 77638
# 86699
#
# Disc length: 1300 seconds
#
# Revision: 0
# Processed by: cddbd v1.4PL0 Copyright (c) Steve Scherf et al.
# Submitted via: Audion 3.0.2 (http://www.panic.com/audion/)
#
DISCID=51051207
DTITLE=David Allen Coe and Friends - Not Politically Correct
DYEAR=1900
DGENRE=
TTITLE0=Devil Went To Jamaca
TTITLE1=Jimmy Buffet Doesn't Live in Key West Anymore
TTITLE2=I Made Linda Lovelace Gag
TTITLE3=House of The Rising Sun
TTITLE4=Fuckin' In The Butt
TTITLE5=Move Them Niggers North
TTITLE6=She Ran Off With A Nigger
EXTD=
EXTT0=
EXTT1=
EXTT2=
EXTT3=
EXTT4=
EXTT5=
EXTT6=
PLAYORDER=
